<?xml version="1.0" encoding="UTF-8" standalone="no"?>
<!-- Created with Inkscape (http://www.inkscape.org/) -->

<svg
   width="118.85358mm"
   height="6.4598236mm"
   viewBox="0 0 118.85358 6.4598236"
   version="1.1"
   id="svg5"
   inkscape:export-filename=".\растровый.svg"
   inkscape:export-xdpi="96"
   inkscape:export-ydpi="96"
   xmlns:inkscape="http://www.inkscape.org/namespaces/inkscape"
   xmlns:sodipodi="http://sodipodi.sourceforge.net/DTD/sodipodi-0.dtd"
   xmlns="http://www.w3.org/2000/svg"
   xmlns:svg="http://www.w3.org/2000/svg">
  <sodipodi:namedview
     id="namedview7"
     pagecolor="#ffffff"
     bordercolor="#000000"
     borderopacity="0.25"
     inkscape:showpageshadow="2"
     inkscape:pageopacity="0.0"
     inkscape:pagecheckerboard="0"
     inkscape:deskcolor="#d1d1d1"
     inkscape:document-units="mm"
     showgrid="false" />
  <defs
     id="defs2" />
  <g
     inkscape:label="Слой 1"
     inkscape:groupmode="layer"
     id="layer1"
     transform="translate(-43.212674,-94.472348)">
    <path
       style="fill:#008000;stroke-width:0.264583"
       id="path568"
       d="m 50.364799,99.817101 c 2.54408,-0.238141 5.111052,-0.07082 7.662109,-0.02365 2.262812,0.06385 4.525817,0.117871 6.789256,0.153085 1.879518,0.04749 3.756392,-0.03654 5.629854,-0.18051 2.132679,-0.172823 4.27146,-0.228314 6.410087,-0.255008 1.634193,-0.01873 3.268448,0.02876 4.902353,-0.0066 2.03494,-0.05404 4.065246,0.07848 6.100009,0.09105 3.620722,0.02972 7.235647,0.19834 10.851044,0.382935 2.136689,0.110657 4.274389,0.205067 6.414149,0.182267 2.60731,-0.0234 5.20827,0.1369 7.81337,0.20668 3.28098,0.20494 6.56685,0.075 9.85011,0.0267 3.69233,0.0256 7.38381,0.0981 11.07638,0.10128 2.50589,-0.002 5.0102,0.12183 7.5159,0.0628 1.6563,-0.033 3.31088,-0.12194 4.96735,-0.14274 1.10659,-0.006 2.21231,0.0422 3.3187,0.0512 0.91678,-0.0623 1.81403,0.0728 2.72055,0.17616 1.40574,0.081 2.81128,0.17124 4.21807,0.23195 0.85647,0.0345 1.71349,0.0407 2.57047,0.0486 0.66414,0.007 1.32829,-0.003 1.99247,-1.3e-4 0.29974,0.002 0.59948,0.006 0.89922,0.009 0,0 -7.15944,-5.201266 -7.15944,-5.201266 v 0 c -0.29154,0.0034 -0.58307,0.007 -0.87462,0.0097 -0.66164,0.0036 -1.32331,-0.0039 -1.98492,0.0048 -0.81945,0.008 -1.63911,0.01053 -2.45853,-0.0011 -1.38914,-0.02582 -2.7815,-0.06713 -4.1563,-0.287221 -0.95503,-0.129969 -1.91209,-0.185523 -2.87621,-0.154017 -1.04376,0.01164 -2.08572,0.07447 -3.12904,0.104233 -1.63549,0.039 -3.26962,0.07007 -4.90141,0.199419 -2.40774,0.07255 -4.8181,0.07779 -7.2265,0.119745 -3.60555,0.0048 -7.21017,0.07934 -10.8156,0.08435 -3.38462,-0.07215 -6.76707,-0.211249 -10.15175,-0.28153 -2.68962,-0.135668 -5.38004,-0.246584 -8.070745,-0.357619 -2.042436,-0.03323 -4.084556,0.01024 -6.127221,-7.94e-4 -1.743858,-0.01286 -3.489695,-0.02453 -5.232249,-0.100197 -1.943868,-0.08442 -2.227091,-0.138129 -4.120322,-0.262015 -0.525026,-0.03436 -1.050536,-0.06091 -1.575803,-0.09136 -2.116484,-0.163775 -4.236479,-0.240234 -6.359736,-0.234649 -1.618795,-0.03145 -3.237566,0.01466 -4.855697,0.06417 -2.126946,0.07224 -4.25186,0.187229 -6.376001,0.317132 -1.896742,0.07981 -3.792704,0.08414 -5.690862,0.07154 -2.171274,0.02222 -4.342622,0.04651 -6.514041,0.03138 -2.734199,-0.04967 -5.472854,-0.0759 -8.196578,-0.346102 0,0 7.152124,5.196322 7.152124,5.196322 z" />
  </g>
</svg>
