<?xml version="1.0" encoding="UTF-8" standalone="no"?>
<svg
   id="blue_copy"
   style="enable-background:new 0 0 100 100;"
   version="1.1"
   viewBox="0 0 100 100"
   xml:space="preserve"
   sodipodi:docname="pause_icon.svg"
   inkscape:version="1.2.1 (9c6d41e410, 2022-07-14)"
   xmlns:inkscape="http://www.inkscape.org/namespaces/inkscape"
   xmlns:sodipodi="http://sodipodi.sourceforge.net/DTD/sodipodi-0.dtd"
   xmlns="http://www.w3.org/2000/svg"
   xmlns:svg="http://www.w3.org/2000/svg"><defs
     id="defs18" /><sodipodi:namedview
     id="namedview16"
     pagecolor="#ffffff"
     bordercolor="#000000"
     borderopacity="0.25"
     inkscape:showpageshadow="2"
     inkscape:pageopacity="0.0"
     inkscape:pagecheckerboard="0"
     inkscape:deskcolor="#d1d1d1"
     showgrid="false"
     inkscape:zoom="2.36"
     inkscape:cx="50.211864"
     inkscape:cy="50"
     inkscape:window-width="1680"
     inkscape:window-height="987"
     inkscape:window-x="-8"
     inkscape:window-y="-8"
     inkscape:window-maximized="1"
     inkscape:current-layer="blue_copy" /><g
     id="Layer_7_copy"
     style="fill:#fc5a50;fill-opacity:1;stroke:#fc5a50;stroke-opacity:1"><path
       d="M39.806,72.858h-8.915c-2.176,0-3.94-1.764-3.94-3.94V31.119c0-2.176,1.764-3.94,3.94-3.94h8.915   c2.176,0,3.94,1.764,3.94,3.94v37.799C43.746,71.094,41.982,72.858,39.806,72.858z"
       id="path2"
       style="fill:#fc5a50;fill-opacity:1;stroke:#fc5a50;stroke-opacity:1" /><path
       d="M68.109,72.821h-8.915c-2.176,0-3.94-1.764-3.94-3.94V31.082c0-2.176,1.764-3.94,3.94-3.94h8.915   c2.176,0,3.94,1.764,3.94,3.94v37.799C72.049,71.057,70.285,72.821,68.109,72.821z"
       id="path4"
       style="fill:#fc5a50;fill-opacity:1;stroke:#fc5a50;stroke-opacity:1" /><path
       d="M40.489,27.248c0.769,0.719,1.257,1.735,1.257,2.871v37.799c0,2.176-1.764,3.94-3.94,3.94h-8.915   c-0.234,0-0.46-0.03-0.683-0.069c0.704,0.658,1.643,1.069,2.683,1.069h8.915c2.176,0,3.94-1.764,3.94-3.94V31.119   C43.746,29.177,42.338,27.573,40.489,27.248z"
       id="path6"
       style="fill:#fc5a50;fill-opacity:1;stroke:#fc5a50;stroke-opacity:1" /><path
       d="M68.792,27.211c0.769,0.719,1.257,1.735,1.257,2.871v37.799c0,2.176-1.764,3.94-3.94,3.94h-8.915   c-0.234,0-0.46-0.03-0.683-0.069c0.704,0.658,1.643,1.069,2.683,1.069h8.915c2.176,0,3.94-1.764,3.94-3.94V31.082   C72.049,29.14,70.641,27.535,68.792,27.211z"
       id="path8"
       style="fill:#fc5a50;fill-opacity:1;stroke:#fc5a50;stroke-opacity:1" /><path
       d="M39.806,72.858h-8.915c-2.176,0-3.94-1.764-3.94-3.94V31.119   c0-2.176,1.764-3.94,3.94-3.94h8.915c2.176,0,3.94,1.764,3.94,3.94v37.799C43.746,71.094,41.982,72.858,39.806,72.858z"
       style="fill:#fc5a50;stroke:#fc5a50;stroke-miterlimit:10;fill-opacity:1;stroke-opacity:1"
       id="path10" /><path
       d="M68.109,72.821h-8.915c-2.176,0-3.94-1.764-3.94-3.94V31.082   c0-2.176,1.764-3.94,3.94-3.94h8.915c2.176,0,3.94,1.764,3.94,3.94v37.799C72.049,71.057,70.285,72.821,68.109,72.821z"
       style="fill:#fc5a50;stroke:#fc5a50;stroke-miterlimit:10;fill-opacity:1;stroke-opacity:1"
       id="path12" /></g></svg>
