<?xml version="1.0" encoding="UTF-8" standalone="no"?>
<svg
   id="blue_copy"
   style="enable-background:new 0 0 100 100;"
   version="1.1"
   viewBox="0 0 100 100"
   xml:space="preserve"
   sodipodi:docname="play_icon.svg"
   inkscape:version="1.2.1 (9c6d41e410, 2022-07-14)"
   xmlns:inkscape="http://www.inkscape.org/namespaces/inkscape"
   xmlns:sodipodi="http://sodipodi.sourceforge.net/DTD/sodipodi-0.dtd"
   xmlns="http://www.w3.org/2000/svg"
   xmlns:svg="http://www.w3.org/2000/svg"><defs
     id="defs12" /><sodipodi:namedview
     id="namedview10"
     pagecolor="#ffffff"
     bordercolor="#000000"
     borderopacity="0.25"
     inkscape:showpageshadow="2"
     inkscape:pageopacity="0.0"
     inkscape:pagecheckerboard="0"
     inkscape:deskcolor="#d1d1d1"
     showgrid="false"
     inkscape:zoom="2.36"
     inkscape:cx="50.211864"
     inkscape:cy="50"
     inkscape:window-width="1680"
     inkscape:window-height="987"
     inkscape:window-x="-8"
     inkscape:window-y="-8"
     inkscape:window-maximized="1"
     inkscape:current-layer="blue_copy" /><g
     id="Layer_4_copy"
     style="fill:#fc5a50;fill-opacity:1;stroke:#fc5a50;stroke-opacity:1"><path
       d="M31.356,25.677l38.625,22.3c1.557,0.899,1.557,3.147,0,4.046l-38.625,22.3c-1.557,0.899-3.504-0.225-3.504-2.023V27.7   C27.852,25.902,29.798,24.778,31.356,25.677z"
       id="path2"
       style="fill:#fc5a50;fill-opacity:1;stroke:#fc5a50;stroke-opacity:1" /><path
       d="M69.981,47.977l-38.625-22.3c-0.233-0.134-0.474-0.21-0.716-0.259l37.341,21.559c1.557,0.899,1.557,3.147,0,4.046   l-38.625,22.3c-0.349,0.201-0.716,0.288-1.078,0.301c0.656,0.938,1.961,1.343,3.078,0.699l38.625-22.3   C71.538,51.124,71.538,48.876,69.981,47.977z"
       id="path4"
       style="fill:#fc5a50;fill-opacity:1;stroke:#fc5a50;stroke-opacity:1" /><path
       d="M31.356,25.677l38.625,22.3c1.557,0.899,1.557,3.147,0,4.046   l-38.625,22.3c-1.557,0.899-3.504-0.225-3.504-2.023V27.7C27.852,25.902,29.798,24.778,31.356,25.677z"
       style="fill:#fc5a50;stroke:#fc5a50;stroke-miterlimit:10;fill-opacity:1;stroke-opacity:1"
       id="path6" /></g></svg>
