<?xml version="1.0" encoding="UTF-8" standalone="no"?>
<svg
   viewBox="0 0 32 32"
   version="1.1"
   id="svg13"
   sodipodi:docname="speaker_icon.svg"
   inkscape:version="1.2.1 (9c6d41e410, 2022-07-14)"
   xmlns:inkscape="http://www.inkscape.org/namespaces/inkscape"
   xmlns:sodipodi="http://sodipodi.sourceforge.net/DTD/sodipodi-0.dtd"
   xmlns="http://www.w3.org/2000/svg"
   xmlns:svg="http://www.w3.org/2000/svg">
  <defs
     id="defs17" />
  <sodipodi:namedview
     id="namedview15"
     pagecolor="#ffffff"
     bordercolor="#000000"
     borderopacity="0.25"
     inkscape:showpageshadow="2"
     inkscape:pageopacity="0.0"
     inkscape:pagecheckerboard="0"
     inkscape:deskcolor="#d1d1d1"
     showgrid="false"
     inkscape:zoom="7.375"
     inkscape:cx="16.067797"
     inkscape:cy="16"
     inkscape:window-width="1680"
     inkscape:window-height="987"
     inkscape:window-x="-8"
     inkscape:window-y="-8"
     inkscape:window-maximized="1"
     inkscape:current-layer="svg13" />
  <title
     id="title2" />
  <g
     data-name="Layer 2"
     id="Layer_2"
     transform="matrix(0.72881355,0,0,0.72881355,3.9322033,4.338983)"
     style="fill:#fc5a50;fill-opacity:1">
    <path
       d="m 19.45,4.11 a 1,1 0 0 0 -1,0.09 L 10.67,10 H 3 a 1,1 0 0 0 -1,1 v 10 a 1,1 0 0 0 1,1 h 7.67 l 7.73,5.8 A 1,1 0 0 0 20,27 V 5 A 1,1 0 0 0 19.45,4.11 Z"
       id="path4"
       style="fill:#fc5a50;fill-opacity:1" />
    <path
       d="m 23,12 a 1,1 0 0 0 -1,1 v 6 a 1,1 0 0 0 2,0 v -6 a 1,1 0 0 0 -1,-1 z"
       id="path6"
       style="fill:#fc5a50;fill-opacity:1" />
    <path
       d="m 26,10 a 1,1 0 0 0 -1,1 v 10 a 1,1 0 0 0 2,0 V 11 a 1,1 0 0 0 -1,-1 z"
       id="path8"
       style="fill:#fc5a50;fill-opacity:1" />
    <path
       d="m 29,8 a 1,1 0 0 0 -1,1 v 14 a 1,1 0 0 0 2,0 V 9 A 1,1 0 0 0 29,8 Z"
       id="path10"
       style="fill:#fc5a50;fill-opacity:1" />
  </g>
</svg>
